<svg xmlns="http://www.w3.org/2000/svg">
  <defs>
    <symbol id="social-logo-facebook" viewBox="0 0 32 32">
      <path fill="#3a5a9a" d="M2.667 0h26.667c1.473 0 2.667 1.194 2.667 2.667v26.667c0 1.473-1.194 2.667-2.667 2.667h-26.667c-1.473 0-2.667-1.194-2.667-2.667v-26.667c0-1.473 1.194-2.667 2.667-2.667z"/><path fill="#fff" d="M18.159 11.362c-.27 0-.572.351-.572.82v1.63h2.857v2.323h-2.857v6.976h-2.697v-6.976h-2.446v-2.323h2.446v-1.367c0-1.961 1.378-3.556 3.269-3.556h2.285v2.473h-2.285z" />
    </symbol>

    <symbol id="social-logo-pocket" viewBox="0 0 32 32">
      <path fill="#f54952" d="M2.667 0h26.667c1.473 0 2.667 1.194 2.667 2.667v26.667c0 1.473-1.194 2.667-2.667 2.667h-26.667c-1.473 0-2.667-1.194-2.667-2.667v-26.667c0-1.473 1.194-2.667 2.667-2.667z"/><path fill="#fff" d="M22.294 10.894c-.165-.471-.612-.776-1.129-.776h-10.776c-.494 0-.941.306-1.106.776-.047.141-.071.282-.071.424v3.976l.047.8c.188 1.788 1.129 3.365 2.565 4.471l.071.047h.024c.776.565 1.647.941 2.565 1.129.424.094.871.141 1.318.141.4 0 .824-.047 1.224-.118l.141-.024.047-.024c.894-.188 1.718-.565 2.471-1.106h.024l.071-.047c1.435-1.106 2.376-2.659 2.565-4.471l.047-.8v-4l-.094-.4zm-2.776 4.141l-3.106 2.965c-.165.165-.4.259-.635.259s-.447-.094-.635-.259l-3.082-2.965c-.353-.353-.376-.918-.024-1.271s.918-.376 1.271-.024l2.471 2.376 2.471-2.376c.353-.353.941-.329 1.271.024.353.353.353.918 0 1.271z" />
    </symbol>

    <symbol id="social-logo-telegram" viewBox="0 0 32 32">
      <path fill="#009fda" d="M2.667 0h26.667c1.473 0 2.667 1.194 2.667 2.667v26.667c0 1.473-1.194 2.667-2.667 2.667h-26.667c-1.473 0-2.667-1.194-2.667-2.667v-26.667c0-1.473 1.194-2.667 2.667-2.667z"/><path fill="#fff" d="M22.237 10.161l-14.015 4.932c-.225.079-.275.274-.008.38l3.013 1.206 1.787.715 8.72-6.395s.252.075.167.167c-.085.093-6.248 6.749-6.248 6.749l-.359.399.475.256 3.954 2.126c.23.124.53.021.597-.265.078-.338 2.258-9.721 2.307-9.929.063-.272-.116-.437-.389-.341zm-9.239 11.517c0 .196.11.25.263.112l2.262-2.029-2.524-1.304v3.222z" />
    </symbol>

    <symbol id="social-logo-twitter" viewBox="0 0 32 32">
      <path fill="#40aeef" d="M2.667 0h26.667c1.473 0 2.667 1.194 2.667 2.667v26.667c0 1.473-1.194 2.667-2.667 2.667h-26.667c-1.473 0-2.667-1.194-2.667-2.667v-26.667c0-1.473 1.194-2.667 2.667-2.667z"/><path fill="#fff" d="M21.525 11.989c.613-.367 1.083-.947 1.304-1.639-.573.339-1.208.586-1.883.719-.541-.576-1.312-.935-2.165-.935-1.638 0-2.966 1.326-2.966 2.962 0 .232.026.458.077.675-2.465-.123-4.651-1.303-6.113-3.095-.255.438-.402.946-.402 1.489 0 1.028.524 1.934 1.319 2.465-.486-.015-.943-.148-1.343-.37v.037c0 1.435 1.023 2.632 2.379 2.905-.249.068-.511.104-.781.104-.191 0-.377-.019-.558-.053.377 1.177 1.473 2.033 2.771 2.057-1.015.795-2.294 1.268-3.683 1.268-.239 0-.475-.014-.707-.042 1.312.841 2.871 1.331 4.547 1.331 5.455 0 8.439-4.514 8.439-8.428l-.009-.383c.579-.417 1.082-.939 1.48-1.533-.532.236-1.104.395-1.704.467z" />
    </symbol>

    <symbol id="social-logo-vkontakte" viewBox="0 0 32 32">
      <path fill="#4a739a" d="M2.667 0h26.667c1.473 0 2.667 1.194 2.667 2.667v26.667c0 1.473-1.194 2.667-2.667 2.667h-26.667c-1.473 0-2.667-1.194-2.667-2.667v-26.667c0-1.473 1.194-2.667 2.667-2.667z"/><path fill="#fff" d="M21.4 15.907s2.151-3.035 2.365-4.032c.071-.356-.086-.556-.456-.556h-1.866c-.427 0-.584.185-.712.456 0 0-1.009 2.15-2.237 3.505-.394.438-.595.57-.812.57-.175 0-.256-.146-.256-.541v-3.462c0-.484-.057-.627-.456-.627h-2.992c-.228 0-.37.133-.37.313 0 .456.698.559.698 1.795v2.55c0 .513-.028.712-.271.712-.641 0-2.166-2.208-3.02-4.716-.171-.513-.356-.655-.841-.655h-1.866c-.271 0-.47.185-.47.456 0 .499.584 2.807 2.878 5.898 1.539 2.08 3.562 3.206 5.385 3.206 1.111 0 1.382-.185 1.382-.655v-1.596c0-.399.157-.57.385-.57.256 0 .709.082 1.767 1.126 1.254 1.197 1.339 1.695 2.023 1.695h2.094c.214 0 .413-.1.413-.456 0-.47-.613-1.311-1.553-2.308-.385-.513-1.012-1.069-1.211-1.325-.285-.299-.199-.47 0-.784z" />
    </symbol>

    <symbol id="social-logo-youtube" viewBox="0 0 32 32">
      <path fill="#da3506" d="M2.667 0h26.667c1.473 0 2.667 1.194 2.667 2.667v26.667c0 1.473-1.194 2.667-2.667 2.667h-26.667c-1.473 0-2.667-1.194-2.667-2.667v-26.667c0-1.473 1.194-2.667 2.667-2.667z" /><path fill="#fff" d="M12 10l10 6-10 6z" />
    </symbol>
    <symbol id="social-logo-zen" viewBox="0 0 30 30">
      <rect width="30" height="30" rx="3" fill="#2C3036"/>
      <path fill-rule="evenodd" clip-rule="evenodd" d="M26.25 15.1241V14.9998V14.8759C21.2684 14.7252 18.9904 14.6009 17.1735 12.8263C15.3994 11.0098 15.2747 8.73179 15.1243 3.75H15H14.8757C14.7253 8.73179 14.6006 11.0098 12.8264 12.8263C11.0095 14.6009 8.73151 14.7252 3.75 14.8759V14.9998V15.1241C8.73151 15.2748 11.0095 15.3991 12.8264 17.1733C14.6006 18.9903 14.7253 21.2682 14.8757 26.25H15H15.1243C15.2747 21.2682 15.3994 18.9903 17.1735 17.1733C18.9904 15.3991 21.2684 15.2748 26.25 15.1241Z" fill="white"/>
    </symbol>
  </defs>
</svg>
